<?xml version="1.0" encoding="UTF-8"?>
<svg width="24px" height="24px" viewBox="0 0 24 24" version="1.1" xmlns="http://www.w3.org/2000/svg" xmlns:xlink="http://www.w3.org/1999/xlink">
    <title>44A7AAF3-5A28-4640-9A2E-C1D9B82E8673</title>
    <g id="Page-1" stroke="none" stroke-width="1" fill="none" fill-rule="evenodd">
        <g id="components" transform="translate(-620.000000, -128.000000)">
            <g id="highlight_off_black_24dp" transform="translate(620.000000, 128.000000)">
                <polygon id="Path" points="0 0 24 0 24 24 0 24"></polygon>
                <path d="M14.59,8 L12,10.59 L9.41,8 L8,9.41 L10.59,12 L8,14.59 L9.41,16 L12,13.41 L14.59,16 L16,14.59 L13.41,12 L16,9.41 L14.59,8 Z M12,2 C6.47,2 2,6.47 2,12 C2,17.53 6.47,22 12,22 C17.53,22 22,17.53 22,12 C22,6.47 17.53,2 12,2 Z M12,20 C7.59,20 4,16.41 4,12 C4,7.59 7.59,4 12,4 C16.41,4 20,7.59 20,12 C20,16.41 16.41,20 12,20 Z" id="Shape" fill="#EF5500" fill-rule="nonzero"></path>
            </g>
        </g>
    </g>
</svg>