<svg xmlns="http://www.w3.org/2000/svg" viewBox="0 0 256 36">
  <path fill="#000" fill-rule="evenodd" d="M78.2708509,24.7840788 L77.2786261,23.4269423 L76.6471194,24.0604063 L75.0243872,21.7089718 C75.0243872,21.7089718 76.6471194,20.0802076 76.6471194,18.3622372 C76.6471194,16.4628475 75.2042467,15.8293835 73.9422326,15.8293835 C72.8600781,15.8293835 71.4172053,16.4628475 71.4172053,18.4524457 C71.4172053,19.8095821 72.7701483,21.5275526 72.7701483,21.5275526 C71.7779235,22.4326443 70.5159094,23.2465253 70.5159094,25.0557065 C70.5159094,27.226724 72.2285714,28.1308134 73.6714442,28.1308134 C74.8435285,28.1308134 76.2864012,26.7736769 76.3773302,26.6834685 L77.2786261,27.9503965 L79.4429352,27.9503965 L77.6393443,25.5077512 L78.2708509,24.7840788 L78.2708509,24.7840788 Z M74.0321624,17.3669369 C75.8357533,17.2767284 74.8435285,19.2663266 74.0321624,20.3518354 C73.1308665,18.9946989 72.4094301,17.3669369 74.0321624,17.3669369 Z M73.7623731,26.1412153 C73.1308665,26.2314237 72.4094301,25.779379 72.4094301,24.7840788 C72.4094301,23.8799893 73.1308665,23.3367338 73.7623731,22.7944806 L75.4750351,25.0557065 C75.3851054,25.2361235 74.5737393,26.0500045 73.7623731,26.1412153 Z M239.952537,8.41214139 C237.694301,8.41214139 235.446058,12.3924403 235.446058,12.3924403 L235.446058,8.86438658 L229.49071,8.86438658 L229.49071,27.9504967 L235.446058,27.9504967 L235.446058,16.1011115 C235.446058,15.377439 235.985636,15.1058112 236.525215,14.9243919 C237.784231,14.5625557 239.862607,14.8341834 239.862607,14.8341834 L239.862607,8.41214139 L239.952537,8.41214139 L239.952537,8.41214139 Z M90.8050585,17.2767284 L90.8050585,23.69857 C90.8050585,24.1506148 90.4443404,24.512451 89.9926932,24.512451 L88.2800312,24.512451 C87.8293833,24.512451 87.4686651,24.1506148 87.4686651,23.69857 L87.4686651,4.52225143 C87.4686651,4.07040716 87.8293833,3.70857092 88.2800312,3.70857092 L89.9926932,3.70857092 C90.4443404,3.70857092 90.8050585,4.07040716 90.8050585,4.52265235 L90.8050585,10.1312144 L96.6654801,10.1312144 L96.6654801,2.80408054 C96.6654801,1.26632662 95.403466,0 93.8706635,0 L83.951413,0 C82.4186105,0 81.1565964,1.26632662 81.1565964,2.80408054 L81.1565964,25.1457145 C81.1565964,26.683268 82.4186105,27.950196 83.951413,27.950196 L93.8706635,27.950196 C95.403466,27.950196 96.6654801,26.683268 96.6654801,25.1457145 L96.6654801,17.276528 L90.8050585,17.276528 L90.8050585,17.2767284 Z M211.90445,8.86438658 L211.90445,25.3264322 C211.90445,26.7737772 213.083528,27.9504967 214.522404,27.9504967 L218.039657,27.9504967 C219.658392,27.9504967 220.657611,26.5933602 220.657611,26.5933602 L220.657611,27.9504967 L226.602966,27.9504967 L226.602966,8.86438658 L220.657611,8.86438658 L220.657611,23.6987705 C220.657611,24.1508152 220.297892,24.422443 219.928181,24.422443 L218.309446,24.422443 C217.859797,24.422443 217.590008,24.0606067 217.590008,23.6987705 L217.590008,8.86438658 L211.90445,8.86458705 L211.90445,8.86438658 Z M191.980016,28.040605 L191.980016,11.577557 C191.980016,10.1312144 190.810929,8.95479553 189.362061,8.95479553 L185.844809,8.95479553 C184.226073,8.95479553 183.236846,10.3116313 183.236846,10.3116313 L183.236846,8.95479553 L177.281499,8.95479553 L177.281499,28.0409056 L183.236846,28.0409056 L183.236846,13.206622 C183.236846,12.7545772 183.596565,12.4829495 184.046214,12.4829495 L185.664949,12.4829495 C186.114598,12.4829495 186.384387,12.8447857 186.384387,13.206622 L186.384387,28.0409056 L191.980016,28.0409056 L191.980016,28.040605 Z M99.2814364,2.26132618 L105.137861,2.26132618 L105.137861,28.0409056 L99.2814364,28.0409056 L99.2814364,2.26132618 L99.2814364,2.26162687 L99.2814364,2.26132618 Z M61.7687432,21.4373441 L61.7687432,28.040605 L67.7200937,28.040605 L67.7200937,19.7183713 C67.7200937,19.7183713 67.7200937,17.4571454 64.9252771,17.4571454 L63.3015457,17.4571454 L67.4493052,8.95479553 L62.2193911,8.95479553 L58.7031382,16.2814282 L58.7031382,2.35123396 L52.7517877,2.35173512 L52.7517877,28.0411061 L58.7031382,28.0411061 L58.7031382,20.442545 L60.6865886,20.442545 C61.6788134,20.442545 61.7687432,21.4378452 61.7687432,21.4378452 L61.7687432,21.4373441 Z M119.746448,8.86438658 L110.37377,8.86438658 C108.924902,8.86438658 107.755816,10.0400036 107.755816,11.4873485 L107.755816,25.326332 C107.755816,26.7736769 108.924902,27.9503965 110.37377,27.9503965 L119.746448,27.9503965 C121.195316,27.9503965 122.364403,26.7736769 122.364403,25.326332 L122.364403,11.4873485 C122.364403,10.0400036 121.195316,8.86438658 119.746448,8.86438658 Z M116.229196,24.150715 C116.229196,24.3321343 116.049336,24.5125512 115.869477,24.5125512 L114.070882,24.5125512 C113.891023,24.5125512 113.711163,24.3321343 113.711163,24.150715 L113.711163,13.116213 C113.711163,12.9347937 113.891023,12.7543768 114.070882,12.7543768 L115.869477,12.7543768 C116.049336,12.7543768 116.229196,12.9347937 116.229196,13.116213 L116.229196,24.150715 Z M50.1368306,19.8095821 L50.1368306,11.577557 C50.1368306,10.1312144 48.9637471,8.95479553 47.5218735,8.95479553 L37.8724122,8.95479553 C36.4305386,8.95479553 35.2574551,10.1312144 35.2574551,11.577557 L35.2574551,25.4175428 C35.2574551,26.8648877 36.4305386,28.040605 37.8724122,28.040605 L47.5218735,28.040605 C48.9637471,28.040605 50.1368306,26.8648877 50.1368306,25.4175428 L50.1368306,21.7991803 L43.9146916,21.7991803 L43.9146916,24.2418256 C43.9146916,24.6938703 43.7338329,24.7840788 43.283185,24.7840788 L42.021171,24.7840788 C41.5695238,24.7840788 41.3896643,24.6938703 41.3896643,24.2418256 L41.3896643,19.8095821 L50.1368306,19.8095821 Z M41.4795941,16.1010112 L41.4795941,13.1161128 C41.4795941,12.9346935 41.6604528,12.7542766 41.8403123,12.7542766 L43.6439032,12.7542766 C43.8247619,12.7542766 44.0046214,12.9346935 44.0046214,13.1161128 L44.0046214,16.1010112 C44.0046214,16.2814282 43.8247619,16.4628475 43.6439032,16.4628475 L41.8403123,16.4628475 C41.6604528,16.3716367 41.4795941,16.2814282 41.4795941,16.1010112 Z M174.573614,19.8095821 L174.573614,11.577557 C174.573614,10.1312144 173.404528,8.95479553 171.965652,8.95479553 L162.313193,8.95479553 C160.874317,8.95479553 159.695238,10.1312144 159.695238,11.577557 L159.695238,25.4175428 C159.695238,26.8648877 160.874317,28.040605 162.313193,28.040605 L171.965652,28.040605 C173.404528,28.040605 174.573614,26.8648877 174.573614,25.4175428 L174.573614,21.7991803 L168.35847,21.7991803 L168.35847,24.2418256 C168.35847,24.6938703 168.168618,24.7840788 167.71897,24.7840788 L166.459953,24.7840788 C166.010304,24.7840788 165.830445,24.6938703 165.830445,24.2418256 L165.830445,19.8095821 L174.573614,19.8095821 L174.573614,19.8095821 Z M165.920375,16.1010112 L165.920375,13.1161128 C165.920375,12.9346935 166.100234,12.7542766 166.280094,12.7542766 L168.078689,12.7542766 C168.26854,12.7542766 168.4484,12.9346935 168.4484,13.1161128 L168.4484,16.1010112 C168.4484,16.2814282 168.26854,16.4628475 168.078689,16.4628475 L166.280094,16.4628475 C166.100234,16.3716367 165.920375,16.2814282 165.920375,16.1010112 Z M32.642498,19.8095821 L32.642498,11.577557 C32.642498,10.1312144 31.4704137,8.95479553 30.027541,8.95479553 L20.3790788,8.95479553 C18.9362061,8.95479553 17.7641218,10.1312144 17.7641218,11.577557 L17.7641218,25.4175428 C17.7641218,26.8648877 18.9362061,28.040605 20.3790788,28.040605 L30.027541,28.040605 C31.4704137,28.040605 32.642498,26.8648877 32.642498,25.4175428 L32.642498,21.7991803 L26.4203591,21.7991803 L26.4203591,24.2418256 C26.4203591,24.6938703 26.2404996,24.7840788 25.7898517,24.7840788 L24.5268384,24.7840788 C24.0761905,24.7840788 23.896331,24.6938703 23.896331,24.2418256 L23.896331,19.8095821 L32.642498,19.8095821 L32.642498,19.8095821 Z M23.9862607,16.1010112 L23.9862607,13.1161128 C23.9862607,12.9346935 24.1661202,12.7542766 24.3469789,12.7542766 L26.1505699,12.7542766 C26.3304294,12.7542766 26.5112881,12.9346935 26.5112881,13.1161128 L26.5112881,16.1010112 C26.5112881,16.2814282 26.3304294,16.4628475 26.1505699,16.4628475 L24.3469789,16.4628475 C24.1661202,16.3716367 23.9862607,16.2814282 23.9862607,16.1010112 Z M137.242779,8.95479553 L133.725527,8.95479553 C132.106792,8.95479553 131.107572,10.3116313 131.107572,10.3116313 L131.107572,8.95479553 L125.162217,8.95479553 L125.162217,34.1911195 L131.107572,34.1911195 L131.107572,27.1358139 C131.107572,27.1358139 131.567213,28.0409056 133.275878,28.0409056 L137.242779,28.0409056 C138.691647,28.0409056 139.860734,26.8651884 139.860734,25.4178435 L139.860734,11.5778577 C139.860734,10.1315151 138.691647,8.95509622 137.242779,8.95509622 L137.242779,8.95479553 Z M133.815457,24.1509154 C133.815457,24.3323347 133.635597,24.5127517 133.455738,24.5127517 L131.657143,24.5127517 C131.477283,24.5127517 131.297424,24.3323347 131.297424,24.1509154 L131.297424,13.1164135 C131.297424,12.9349942 131.477283,12.7545772 131.657143,12.7545772 L133.455738,12.7545772 C133.635597,12.7545772 133.815457,12.9349942 133.815457,13.1164135 L133.815457,24.1509154 Z M154.559251,8.95479553 L151.041998,8.95479553 C149.413271,8.95479553 148.424044,10.3116313 148.424044,10.3116313 L148.424044,8.95479553 L142.478689,8.95479553 L142.478689,34.1911195 L148.424044,34.1911195 L148.424044,27.1358139 C148.424044,27.1358139 148.873692,28.0409056 150.59235,28.0409056 L154.559251,28.0409056 C155.998126,28.0409056 157.177205,26.8651884 157.177205,25.4178435 L157.177205,11.5778577 C157.177205,10.1315151 155.998126,8.95509622 154.559251,8.95509622 L154.559251,8.95479553 Z M151.041998,24.1509154 C151.041998,24.3323347 150.862139,24.5127517 150.682279,24.5127517 L148.873692,24.5127517 C148.693833,24.5127517 148.513973,24.3323347 148.513973,24.1509154 L148.513973,13.1164135 C148.513973,12.9349942 148.693833,12.7545772 148.873692,12.7545772 L150.682279,12.7545772 C150.862139,12.7545772 151.041998,12.9349942 151.041998,13.1164135 L151.041998,24.1509154 Z M206.858392,8.86438658 L202.891491,8.86438658 C201.172834,8.86438658 200.723185,9.76937812 200.723185,9.76937812 L200.723185,2.26132618 L194.77783,2.26132618 L194.77783,27.9506972 L200.723185,27.9506972 L200.723185,26.5935607 C200.723185,26.5935607 201.812334,27.9506972 203.34114,27.9506972 L206.858392,27.9506972 C208.297268,27.9506972 209.476347,26.7739776 209.476347,25.3266327 L209.476347,11.4876492 C209.476347,10.0403043 208.297268,8.86468728 206.858392,8.86468728 L206.858392,8.86438658 Z M203.520999,24.150715 C203.520999,24.3321343 203.34114,24.5125512 203.16128,24.5125512 L201.352693,24.5125512 C201.172834,24.5125512 200.992974,24.3321343 200.992974,24.150715 L200.992974,13.116213 C200.992974,12.9347937 201.172834,12.7543768 201.352693,12.7543768 L203.16128,12.7543768 C203.34114,12.7543768 203.520999,12.9347937 203.520999,13.116213 L203.520999,24.150715 Z M250.144575,8.86428635 L250.144575,10.2214228 C250.144575,10.2214228 249.055425,8.86428635 247.52662,8.86428635 L244.009368,8.86428635 C242.570492,8.86428635 241.391413,10.0400036 241.391413,11.4873485 L241.391413,25.326332 C241.391413,26.7736769 242.570492,27.9503965 244.009368,27.9503965 L247.976269,27.9503965 C249.694926,27.9503965 250.144575,27.0453047 250.144575,27.0453047 L250.144575,31.9295928 C250.144575,32.3826399 249.784856,32.6532653 249.415144,32.6532653 L248.066198,32.6532653 C247.34676,32.6532653 246.987041,32.6532653 246.987041,31.9295928 L246.987041,30.3920394 L241.391413,30.3920394 L241.391413,33.3769378 C241.391413,34.8242828 242.570492,36 244.009368,36 L253.392037,36 C254.830913,36 256,34.8242828 256,33.3769378 L256,8.86428635 L250.144575,8.86428635 L250.144575,8.86428635 Z M249.784856,24.150715 C249.784856,24.3321343 249.604996,24.5125512 249.415144,24.5125512 L247.61655,24.5125512 C247.43669,24.5125512 247.256831,24.3321343 247.256831,24.150715 L247.256831,13.116213 C247.256831,12.9347937 247.43669,12.7543768 247.61655,12.7543768 L249.415144,12.7543768 C249.604996,12.7543768 249.784856,12.9347937 249.784856,13.116213 L249.784856,24.150715 Z M13.255644,0.0904490378 L0,0.0904490378 L0,27.9508375 L6.49252771,27.9508375 L6.49252771,19.8100232 C6.49252771,18.6333036 7.66471194,18.6333036 7.66471194,18.6333036 L13.255644,18.6333036 C14.8783763,18.6333036 16.1413895,17.3673779 16.1413895,15.739616 L16.1413895,2.89493051 C16.1413895,1.44768576 14.8783763,0.0908499644 13.255644,0.0908499644 L13.255644,0.090890057 L13.255644,0.0904490378 Z M9.19771429,15.0159435 C9.19771429,15.1963605 9.01735519,15.3777798 8.8369961,15.3777798 L7.03350507,15.3777798 C6.85314598,15.3777798 6.67278689,15.1963605 6.67278689,15.0159435 L6.67278689,4.07064772 C6.67278689,3.88993006 6.85314598,3.70901194 7.03350507,3.70901194 L8.8369961,3.70901194 C9.01735519,3.70901194 9.19771429,3.88993006 9.19771429,4.07084818 L9.19771429,15.016144 L9.19771429,15.0159435 Z"/>
</svg>
